<svg width="247" height="248" viewBox="0 0 247 248" fill="none" xmlns="http://www.w3.org/2000/svg">
<path d="M24.2402 191.5C15.8385 176.948 12.7015 160.775 14.7616 145.686C16.8502 130.516 24.0031 116.493 35.9711 106.022C47.5545 95.889 63.307 89.4445 80.2401 87.1282C88.7094 85.9619 97.5576 85.8572 106.373 86.8511C115.253 87.8496 124.346 89.9421 132.709 93.4154C141.322 96.995 149.677 102.376 154.022 109.967C158.587 117.999 159.815 127.148 158.285 135.326C156.721 143.602 152.881 151.549 146.575 157.572C143.775 160.243 140.586 162.633 136.683 164.097C133.212 165.404 129.307 166.121 125.375 166.283C118.003 166.598 109.062 165.142 103.601 159.652C100.79 156.823 99.2215 153.104 98.055 149.691C96.7076 145.722 95.9215 141.605 95.8647 137.618C95.8105 133.686 96.7789 129.805 97.7748 126.098C98.8935 121.979 100.347 117.977 102.116 114.087C105.667 106.33 110.417 99.0671 116.268 92.5746C121.978 86.2325 128.722 80.3459 136.535 75.8909C144.05 71.5863 152.69 68.8057 161.828 67.311C182.155 63.9699 203.836 67.2202 224.587 72.418C229.958 73.7637 235.283 75.2389 240.605 76.7858C241.691 77.0956 242.295 78.2728 242.004 79.0985C241.679 80.0213 240.551 80.3336 239.464 80.0238C219.035 74.1021 197.74 68.8766 176.872 69.4794C167.947 69.739 159.179 71.0001 151.106 73.6165C142.831 76.3069 135.8 80.4911 129.49 85.5844C116.29 96.2219 106.781 110.271 102.203 125.783C101.148 129.342 100.121 133.075 99.9874 136.85C99.8711 140.449 100.495 144.144 101.554 147.738C102.488 150.87 103.823 154.561 106.19 157.142C108.266 159.42 111.12 160.808 114.275 161.719C121.199 163.684 129.209 163.066 135.275 160.616C138.755 159.221 141.718 156.844 144.157 154.318C147.015 151.357 149.311 147.98 151.003 144.372C154.357 137.237 155.799 129.246 154.077 121.124C153.262 117.215 151.836 113.219 149.416 109.655C147.226 106.445 144.121 103.695 140.67 101.424C133.496 96.7134 124.902 93.8322 116.487 92.0149C108.216 90.23 99.7603 89.472 91.5087 89.7686C75.1013 90.341 59.4048 94.8035 46.8777 102.839C33.9805 111.108 25.1032 123.05 20.958 136.767C16.8299 150.436 17.4464 165.595 22.9326 179.938C24.2707 183.43 25.9219 186.851 27.8467 190.186C29.0439 192.318 25.4628 193.623 24.2402 191.5Z" fill="#32E2DF"/>
<path d="M235.818 62.3426C235.823 62.5808 235.853 62.8098 235.877 63.055C235.864 62.9046 235.831 62.7474 235.817 62.597C236.053 64.1906 236.694 65.7632 237.302 67.3058C237.927 68.9271 238.577 70.539 239.246 72.158C239.631 73.0761 240.036 74.0012 240.441 74.9263C240.382 74.7783 240.318 74.6464 240.24 74.4915C240.703 75.5646 241.237 76.6261 241.675 77.7085C242.227 79.0314 241.875 80.4723 240.618 81.2125C239.725 81.7353 238.648 82.0291 237.646 82.4223C236.726 82.7716 235.82 83.144 234.947 83.5465C233.948 83.9953 232.963 84.4671 232.017 84.9529C232.155 84.8742 232.288 84.8118 232.446 84.7401C229.848 86.0817 227.427 87.613 225.163 89.3269C224.527 89.8127 223.885 90.3146 223.257 90.8396C222.935 91.1264 222.301 91.2305 221.813 91.1681C221.301 91.1149 220.688 90.8444 220.354 90.472C220.02 90.0997 219.76 89.6441 219.79 89.1815C219.826 88.7028 220.047 88.3258 220.426 88.0043C224.379 84.7013 228.952 81.9627 233.943 79.8623C234.62 79.5731 235.311 79.3071 236.003 79.0411C236.689 78.7913 237.428 78.5784 238.072 78.2592C237.933 78.3378 237.8 78.4003 237.642 78.472C237.806 78.3841 237.95 78.2892 238.106 78.162C238.001 78.2707 237.877 78.3726 237.772 78.4813C237.871 78.3888 237.95 78.2893 238.01 78.1829C237.939 78.3217 237.868 78.4604 237.777 78.5922C237.831 78.502 237.871 78.3887 237.885 78.2846C237.854 78.4373 237.822 78.59 237.81 78.7496C237.83 78.6293 237.825 78.5183 237.82 78.4073C237.834 78.5576 237.867 78.7149 237.88 78.8652C237.842 78.5969 237.753 78.3471 237.644 78.0904C237.702 78.2384 237.767 78.3702 237.845 78.5252C235.955 74.2744 234.039 70.0328 232.527 65.7149C232.082 64.466 231.771 63.2102 231.712 61.9335C231.691 61.4895 231.992 61.013 232.348 60.7562C232.704 60.4995 233.29 60.3422 233.792 60.4278C234.946 60.5433 235.766 61.3596 235.818 62.3426Z" fill="#32E2DF"/>
</svg>
