<svg width="177" height="177" viewBox="0 0 177 177" fill="none" xmlns="http://www.w3.org/2000/svg">
<path d="M88.4998 110.57C76.3172 110.57 66.4119 100.664 66.4119 88.4815C66.4119 76.2989 76.3172 66.3936 88.4998 66.3936C100.682 66.3936 110.588 76.2989 110.588 88.4815C110.569 100.664 100.664 110.57 88.4998 110.57ZM88.4998 75.6694C81.4272 75.6694 75.6692 81.4274 75.6692 88.5C75.6692 95.5726 81.4272 101.331 88.4998 101.331C95.5724 101.331 101.331 95.5726 101.331 88.5C101.331 81.4274 95.5724 75.6694 88.4998 75.6694Z" fill="#1B4A9B"/>
<path d="M88.537 127.399C85.8708 127.399 83.2047 127.121 80.5757 126.584C70.4111 124.474 61.6722 118.512 55.9697 109.829C50.2672 101.145 48.3046 90.7586 50.4153 80.5755C52.2482 71.7626 57.1176 63.8198 64.0976 58.1913C71.0036 52.6369 79.6499 49.582 88.4629 49.582C91.129 49.582 93.7951 49.8597 96.4242 50.3967C106.589 52.5073 115.328 58.469 121.03 67.1524C126.733 75.8358 128.695 86.2225 126.585 96.4056C124.752 105.219 119.882 113.161 112.902 118.79C105.978 124.344 97.3314 127.399 88.537 127.399ZM88.4629 58.8394C74.5214 58.8394 62.3202 68.7632 59.469 82.4455C56.1363 98.4421 66.449 114.18 82.4457 117.512C84.4452 117.938 86.5003 118.142 88.5184 118.142C102.46 118.142 114.661 108.218 117.512 94.5356C119.123 86.778 117.623 78.8722 113.291 72.2439C108.959 65.6157 102.293 61.0796 94.5357 59.4688C92.5361 59.0615 90.481 58.8394 88.4629 58.8394Z" fill="#1B4A9B"/>
<path d="M88.5555 143.673C86.8522 143.673 85.1303 143.599 83.4084 143.433C68.7263 142.081 55.4698 135.083 46.0459 123.752C36.6219 112.421 32.1969 98.0904 33.5485 83.4268C34.826 69.6519 41.158 56.9323 51.4151 47.6565C61.5982 38.4177 74.7436 33.3447 88.4259 33.3447C90.1292 33.3447 91.8511 33.4187 93.5729 33.5854C108.255 34.9369 121.512 41.9355 130.936 53.2665C140.359 64.5974 144.784 78.9278 143.433 93.6099C142.155 107.385 135.823 120.104 125.566 129.38C115.383 138.582 102.238 143.673 88.5555 143.673ZM88.4259 42.5835C64.5975 42.5835 44.972 60.5057 42.7688 84.2785C40.4359 109.495 59.0431 131.898 84.2601 134.231C85.6857 134.361 87.1299 134.435 88.5555 134.435C112.384 134.435 132.009 116.512 134.213 92.7397C136.545 67.5227 117.938 45.12 92.7213 42.7872C91.2957 42.6391 89.8515 42.5835 88.4259 42.5835Z" fill="#1B4A9B"/>
<path d="M88.5371 160.263C87.7039 160.263 86.8522 160.244 86.0006 160.226C76.3174 159.892 66.986 157.671 58.2657 153.616C49.8415 149.709 42.3616 144.266 35.9925 137.453C29.6235 130.639 24.7356 122.789 21.4215 114.124C17.9778 105.145 16.4225 95.6837 16.7558 86.0005C17.4038 67.2822 25.18 49.8229 38.6771 36.8256C52.1188 23.8654 69.8003 16.7188 88.4445 16.7188C89.2777 16.7188 90.1293 16.7373 90.981 16.7558C100.664 17.089 109.996 19.3108 118.716 23.3655C127.14 27.2721 134.62 32.7154 140.989 39.5288C147.358 46.3422 152.246 54.1924 155.56 62.8572C159.004 71.8368 160.559 81.2978 160.226 90.981C159.578 109.699 151.802 127.159 138.304 140.156C124.863 153.135 107.181 160.263 88.5371 160.263ZM88.4445 25.9761C54.5998 25.9761 27.1795 52.489 26.0131 86.3338C24.8096 120.79 51.8781 149.783 86.3153 150.987C87.0559 151.005 87.7965 151.024 88.5186 151.024C122.363 151.024 149.784 124.511 150.95 90.6663C152.153 56.2105 125.085 27.2165 90.6478 26.0131C89.9257 25.9946 89.1851 25.9761 88.4445 25.9761Z" fill="#1B4A9B"/>
<path d="M88.5 177C76.5581 177 64.9679 174.667 54.0442 170.038C43.5094 165.576 34.0484 159.207 25.9205 151.079C17.7926 142.952 11.405 133.491 6.96152 122.956C2.35138 112.032 0 100.442 0 88.5C0 76.5581 2.33286 64.9679 6.96152 54.0442C11.4236 43.5094 17.7926 34.0484 25.9205 25.9205C34.0484 17.7926 43.5094 11.405 54.0442 6.96152C64.9679 2.35138 76.5581 0 88.5 0C100.442 0 112.032 2.33286 122.956 6.96152C133.491 11.4236 142.952 17.7926 151.079 25.9205C159.207 34.0484 165.595 43.5094 170.038 54.0442C174.649 64.9679 177 76.5581 177 88.5C177 100.442 174.667 112.032 170.038 122.956C165.576 133.491 159.207 142.952 151.079 151.079C142.952 159.207 133.491 165.595 122.956 170.038C112.032 174.667 100.442 177 88.5 177ZM88.5 9.23879C44.8054 9.23879 9.25732 44.7869 9.25732 88.4815C9.25732 132.176 44.8054 167.724 88.5 167.724C132.195 167.724 167.743 132.176 167.743 88.4815C167.743 44.8054 132.195 9.23879 88.5 9.23879Z" fill="#1B4A9B"/>
</svg>
