<svg width="341" height="338" viewBox="0 0 341 338" fill="none" xmlns="http://www.w3.org/2000/svg">
<path d="M14.2852 28.57C22.1746 28.57 28.5699 22.1744 28.5699 14.285C28.5699 6.39561 22.1746 0 14.2852 0C6.39582 0 0 6.39561 0 14.285C0 22.1744 6.39582 28.57 14.2852 28.57Z" fill="#B76FEF"/>
<path d="M76.7288 28.57C84.6182 28.57 91.014 22.1744 91.014 14.285C91.014 6.39561 84.6182 0 76.7288 0C68.8394 0 62.4441 6.39561 62.4441 14.285C62.4441 22.1744 68.8394 28.57 76.7288 28.57Z" fill="#B76FEF"/>
<path d="M139.17 28.57C147.06 28.57 153.455 22.1744 153.455 14.285C153.455 6.39561 147.06 0 139.17 0C131.281 0 124.885 6.39561 124.885 14.285C124.885 22.1744 131.281 28.57 139.17 28.57Z" fill="#B76FEF"/>
<path d="M201.721 28.57C209.61 28.57 216.006 22.1744 216.006 14.285C216.006 6.39561 209.61 0 201.721 0C193.832 0 187.436 6.39561 187.436 14.285C187.436 22.1744 193.832 28.57 201.721 28.57Z" fill="#B76FEF"/>
<path d="M264.166 28.57C272.055 28.57 278.45 22.1744 278.45 14.285C278.45 6.39561 272.055 0 264.166 0C256.276 0 249.88 6.39561 249.88 14.285C249.88 22.1744 256.276 28.57 264.166 28.57Z" fill="#B76FEF"/>
<path d="M326.715 28.57C334.604 28.57 341 22.1744 341 14.285C341 6.39561 334.604 0 326.715 0C318.825 0 312.43 6.39561 312.43 14.285C312.43 22.1744 318.825 28.57 326.715 28.57Z" fill="#B76FEF"/>
<path d="M14.2852 80.0827C22.1746 80.0827 28.5699 73.6871 28.5699 65.7977C28.5699 57.9083 22.1746 51.5127 14.2852 51.5127C6.39582 51.5127 0 57.9083 0 65.7977C0 73.6871 6.39582 80.0827 14.2852 80.0827Z" fill="#B76FEF"/>
<path d="M76.7288 80.0827C84.6182 80.0827 91.014 73.6871 91.014 65.7977C91.014 57.9083 84.6182 51.5127 76.7288 51.5127C68.8394 51.5127 62.4441 57.9083 62.4441 65.7977C62.4441 73.6871 68.8394 80.0827 76.7288 80.0827Z" fill="#B76FEF"/>
<path d="M139.17 80.0827C147.06 80.0827 153.455 73.6871 153.455 65.7977C153.455 57.9083 147.06 51.5127 139.17 51.5127C131.281 51.5127 124.885 57.9083 124.885 65.7977C124.885 73.6871 131.281 80.0827 139.17 80.0827Z" fill="#B76FEF"/>
<path d="M201.721 80.0827C209.61 80.0827 216.006 73.6871 216.006 65.7977C216.006 57.9083 209.61 51.5127 201.721 51.5127C193.832 51.5127 187.436 57.9083 187.436 65.7977C187.436 73.6871 193.832 80.0827 201.721 80.0827Z" fill="#B76FEF"/>
<path d="M264.166 80.0827C272.055 80.0827 278.45 73.6871 278.45 65.7977C278.45 57.9083 272.055 51.5127 264.166 51.5127C256.276 51.5127 249.88 57.9083 249.88 65.7977C249.88 73.6871 256.276 80.0827 264.166 80.0827Z" fill="#B76FEF"/>
<path d="M326.715 80.0827C334.604 80.0827 341 73.6871 341 65.7977C341 57.9083 334.604 51.5127 326.715 51.5127C318.825 51.5127 312.43 57.9083 312.43 65.7977C312.43 73.6871 318.825 80.0827 326.715 80.0827Z" fill="#B76FEF"/>
<path d="M14.2852 131.595C22.1746 131.595 28.5699 125.2 28.5699 117.31C28.5699 109.421 22.1746 103.025 14.2852 103.025C6.39582 103.025 0 109.421 0 117.31C0 125.2 6.39582 131.595 14.2852 131.595Z" fill="#B76FEF"/>
<path d="M76.7288 131.595C84.6182 131.595 91.014 125.2 91.014 117.31C91.014 109.421 84.6182 103.025 76.7288 103.025C68.8394 103.025 62.4441 109.421 62.4441 117.31C62.4441 125.2 68.8394 131.595 76.7288 131.595Z" fill="#B76FEF"/>
<path d="M139.17 131.595C147.06 131.595 153.455 125.2 153.455 117.31C153.455 109.421 147.06 103.025 139.17 103.025C131.281 103.025 124.885 109.421 124.885 117.31C124.885 125.2 131.281 131.595 139.17 131.595Z" fill="#B76FEF"/>
<path d="M201.721 131.595C209.61 131.595 216.006 125.2 216.006 117.31C216.006 109.421 209.61 103.025 201.721 103.025C193.832 103.025 187.436 109.421 187.436 117.31C187.436 125.2 193.832 131.595 201.721 131.595Z" fill="#B76FEF"/>
<path d="M264.166 131.595C272.055 131.595 278.45 125.2 278.45 117.31C278.45 109.421 272.055 103.025 264.166 103.025C256.276 103.025 249.88 109.421 249.88 117.31C249.88 125.2 256.276 131.595 264.166 131.595Z" fill="#B76FEF"/>
<path d="M326.715 131.595C334.604 131.595 341 125.2 341 117.31C341 109.421 334.604 103.025 326.715 103.025C318.825 103.025 312.43 109.421 312.43 117.31C312.43 125.2 318.825 131.595 326.715 131.595Z" fill="#B76FEF"/>
<path d="M14.2852 183.108C22.1746 183.108 28.5699 176.712 28.5699 168.823C28.5699 160.933 22.1746 154.538 14.2852 154.538C6.39582 154.538 0 160.933 0 168.823C0 176.712 6.39582 183.108 14.2852 183.108Z" fill="#B76FEF"/>
<path d="M76.7288 183.108C84.6182 183.108 91.014 176.712 91.014 168.823C91.014 160.933 84.6182 154.538 76.7288 154.538C68.8394 154.538 62.4441 160.933 62.4441 168.823C62.4441 176.712 68.8394 183.108 76.7288 183.108Z" fill="#B76FEF"/>
<path d="M139.17 183.108C147.06 183.108 153.455 176.712 153.455 168.823C153.455 160.933 147.06 154.538 139.17 154.538C131.281 154.538 124.885 160.933 124.885 168.823C124.885 176.712 131.281 183.108 139.17 183.108Z" fill="#B76FEF"/>
<path d="M201.721 183.108C209.61 183.108 216.006 176.712 216.006 168.823C216.006 160.933 209.61 154.538 201.721 154.538C193.832 154.538 187.436 160.933 187.436 168.823C187.436 176.712 193.832 183.108 201.721 183.108Z" fill="#B76FEF"/>
<path d="M264.166 183.108C272.055 183.108 278.45 176.712 278.45 168.823C278.45 160.933 272.055 154.538 264.166 154.538C256.276 154.538 249.88 160.933 249.88 168.823C249.88 176.712 256.276 183.108 264.166 183.108Z" fill="#B76FEF"/>
<path d="M326.715 183.108C334.604 183.108 341 176.712 341 168.823C341 160.933 334.604 154.538 326.715 154.538C318.825 154.538 312.43 160.933 312.43 168.823C312.43 176.712 318.825 183.108 326.715 183.108Z" fill="#B76FEF"/>
<path d="M14.2852 234.62C22.1746 234.62 28.5699 228.225 28.5699 220.335C28.5699 212.446 22.1746 206.05 14.2852 206.05C6.39582 206.05 0 212.446 0 220.335C0 228.225 6.39582 234.62 14.2852 234.62Z" fill="#B76FEF"/>
<path d="M76.7288 234.62C84.6182 234.62 91.014 228.225 91.014 220.335C91.014 212.446 84.6182 206.05 76.7288 206.05C68.8394 206.05 62.4441 212.446 62.4441 220.335C62.4441 228.225 68.8394 234.62 76.7288 234.62Z" fill="#B76FEF"/>
<path d="M139.17 234.62C147.06 234.62 153.455 228.225 153.455 220.335C153.455 212.446 147.06 206.05 139.17 206.05C131.281 206.05 124.885 212.446 124.885 220.335C124.885 228.225 131.281 234.62 139.17 234.62Z" fill="#B76FEF"/>
<path d="M201.721 234.62C209.61 234.62 216.006 228.225 216.006 220.335C216.006 212.446 209.61 206.05 201.721 206.05C193.832 206.05 187.436 212.446 187.436 220.335C187.436 228.225 193.832 234.62 201.721 234.62Z" fill="#B76FEF"/>
<path d="M264.166 234.62C272.055 234.62 278.45 228.225 278.45 220.335C278.45 212.446 272.055 206.05 264.166 206.05C256.276 206.05 249.88 212.446 249.88 220.335C249.88 228.225 256.276 234.62 264.166 234.62Z" fill="#B76FEF"/>
<path d="M326.715 234.62C334.604 234.62 341 228.225 341 220.335C341 212.446 334.604 206.05 326.715 206.05C318.825 206.05 312.43 212.446 312.43 220.335C312.43 228.225 318.825 234.62 326.715 234.62Z" fill="#B76FEF"/>
<path d="M14.2852 286.133C22.1746 286.133 28.5699 279.737 28.5699 271.848C28.5699 263.959 22.1746 257.563 14.2852 257.563C6.39582 257.563 0 263.959 0 271.848C0 279.737 6.39582 286.133 14.2852 286.133Z" fill="#B76FEF"/>
<path d="M76.7288 286.133C84.6182 286.133 91.014 279.737 91.014 271.848C91.014 263.959 84.6182 257.563 76.7288 257.563C68.8394 257.563 62.4441 263.959 62.4441 271.848C62.4441 279.737 68.8394 286.133 76.7288 286.133Z" fill="#B76FEF"/>
<path d="M139.17 286.133C147.06 286.133 153.455 279.737 153.455 271.848C153.455 263.959 147.06 257.563 139.17 257.563C131.281 257.563 124.885 263.959 124.885 271.848C124.885 279.737 131.281 286.133 139.17 286.133Z" fill="#B76FEF"/>
<path d="M201.721 286.133C209.61 286.133 216.006 279.737 216.006 271.848C216.006 263.959 209.61 257.563 201.721 257.563C193.832 257.563 187.436 263.959 187.436 271.848C187.436 279.737 193.832 286.133 201.721 286.133Z" fill="#B76FEF"/>
<path d="M264.166 286.133C272.055 286.133 278.45 279.737 278.45 271.848C278.45 263.959 272.055 257.563 264.166 257.563C256.276 257.563 249.88 263.959 249.88 271.848C249.88 279.737 256.276 286.133 264.166 286.133Z" fill="#B76FEF"/>
<path d="M326.715 286.133C334.604 286.133 341 279.737 341 271.848C341 263.959 334.604 257.563 326.715 257.563C318.825 257.563 312.43 263.959 312.43 271.848C312.43 279.737 318.825 286.133 326.715 286.133Z" fill="#B76FEF"/>
<path d="M14.2852 337.645C22.1746 337.645 28.5699 331.25 28.5699 323.36C28.5699 315.471 22.1746 309.075 14.2852 309.075C6.39582 309.075 0 315.471 0 323.36C0 331.25 6.39582 337.645 14.2852 337.645Z" fill="#B76FEF"/>
<path d="M76.7288 337.645C84.6182 337.645 91.014 331.25 91.014 323.36C91.014 315.471 84.6182 309.075 76.7288 309.075C68.8394 309.075 62.4441 315.471 62.4441 323.36C62.4441 331.25 68.8394 337.645 76.7288 337.645Z" fill="#B76FEF"/>
<path d="M139.17 337.645C147.06 337.645 153.455 331.25 153.455 323.36C153.455 315.471 147.06 309.075 139.17 309.075C131.281 309.075 124.885 315.471 124.885 323.36C124.885 331.25 131.281 337.645 139.17 337.645Z" fill="#B76FEF"/>
<path d="M201.721 337.645C209.61 337.645 216.006 331.25 216.006 323.36C216.006 315.471 209.61 309.075 201.721 309.075C193.832 309.075 187.436 315.471 187.436 323.36C187.436 331.25 193.832 337.645 201.721 337.645Z" fill="#B76FEF"/>
<path d="M264.166 337.645C272.055 337.645 278.45 331.25 278.45 323.36C278.45 315.471 272.055 309.075 264.166 309.075C256.276 309.075 249.88 315.471 249.88 323.36C249.88 331.25 256.276 337.645 264.166 337.645Z" fill="#B76FEF"/>
<path d="M326.715 337.645C334.604 337.645 341 331.25 341 323.36C341 315.471 334.604 309.075 326.715 309.075C318.825 309.075 312.43 315.471 312.43 323.36C312.43 331.25 318.825 337.645 326.715 337.645Z" fill="#B76FEF"/>
</svg>
