<svg width="56" height="56" viewBox="0 0 56 56" fill="none" xmlns="http://www.w3.org/2000/svg">
<path d="M52.4244 0H3.07562C2.26179 0.00605108 1.483 0.332032 0.907517 0.907517C0.332032 1.483 0.00605108 2.26179 0 3.07562V52.4244C0.00605108 53.2382 0.332032 54.017 0.907517 54.5925C1.483 55.168 2.26179 55.4939 3.07562 55.5H29.6462V34.04H22.4312V25.6456H29.6462V19.4713C29.6462 12.3025 34.0169 8.39437 40.4456 8.39437C42.5962 8.39437 44.7469 8.39437 46.8975 8.71813V16.1875H42.4806C38.9888 16.1875 38.3181 17.8525 38.3181 20.2806V25.6225H46.6431L45.5563 34.0169H38.3181V55.5H52.4244C53.2382 55.4939 54.017 55.168 54.5925 54.5925C55.168 54.017 55.4939 53.2382 55.5 52.4244V3.07562C55.4939 2.26179 55.168 1.483 54.5925 0.907517C54.017 0.332032 53.2382 0.00605108 52.4244 0Z" fill="white"/>
</svg>
