<svg width="57" height="56" viewBox="0 0 57 56" fill="none" xmlns="http://www.w3.org/2000/svg">
<path d="M28.5 0C24.7573 0 21.0513 0.742222 17.5935 2.18429C14.1357 3.62636 10.9939 5.74002 8.34746 8.40462C3.00267 13.786 0 21.0847 0 28.6952C0 41.3784 8.1795 52.1391 19.494 55.9556C20.919 56.1851 21.375 55.2956 21.375 54.5208V49.6713C13.4805 51.393 11.799 45.8262 11.799 45.8262C10.488 42.4975 8.6355 41.608 8.6355 41.608C6.042 39.8289 8.835 39.8863 8.835 39.8863C11.685 40.0871 13.1955 42.8419 13.1955 42.8419C15.675 47.2035 19.8645 45.9122 21.489 45.2236C21.7455 43.3584 22.4865 42.0958 23.2845 41.3784C16.9575 40.661 10.317 38.1932 10.317 27.2604C10.317 24.0752 11.4 21.5214 13.2525 19.484C12.9675 18.7666 11.97 15.7823 13.5375 11.9085C13.5375 11.9085 15.9315 11.1337 21.375 14.8354C23.6265 14.2041 26.0775 13.8885 28.5 13.8885C30.9225 13.8885 33.3735 14.2041 35.625 14.8354C41.0685 11.1337 43.4625 11.9085 43.4625 11.9085C45.03 15.7823 44.0325 18.7666 43.7475 19.484C45.6 21.5214 46.683 24.0752 46.683 27.2604C46.683 38.2219 40.014 40.6323 33.6585 41.3497C34.6845 42.2393 35.625 43.9897 35.625 46.6583V54.5208C35.625 55.2956 36.081 56.2138 37.5345 55.9556C48.849 52.1104 57 41.3784 57 28.6952C57 24.9269 56.2628 21.1954 54.8306 17.714C53.3983 14.2325 51.299 11.0692 48.6525 8.40462C46.0061 5.74002 42.8643 3.62636 39.4065 2.18429C35.9487 0.742222 32.2427 0 28.5 0Z" fill="white"/>
</svg>
