<svg width="55" height="56" viewBox="0 0 55 56" fill="none" xmlns="http://www.w3.org/2000/svg">
<path d="M15.95 0H39.05C47.85 0 55 7.28 55 16.24V39.76C55 44.0671 53.3196 48.1978 50.3284 51.2434C47.3372 54.289 43.2802 56 39.05 56H15.95C7.15 56 0 48.72 0 39.76V16.24C0 11.9329 1.68044 7.80218 4.67165 4.75659C7.66285 1.711 11.7198 0 15.95 0ZM15.4 5.6C12.7744 5.6 10.2563 6.662 8.39964 8.55236C6.54303 10.4427 5.5 13.0066 5.5 15.68V40.32C5.5 45.892 9.9275 50.4 15.4 50.4H39.6C42.2256 50.4 44.7437 49.338 46.6004 47.4476C48.457 45.5573 49.5 42.9934 49.5 40.32V15.68C49.5 10.108 45.0725 5.6 39.6 5.6H15.4ZM41.9375 9.8C42.8492 9.8 43.7235 10.1687 44.3682 10.8251C45.0128 11.4815 45.375 12.3717 45.375 13.3C45.375 14.2283 45.0128 15.1185 44.3682 15.7749C43.7235 16.4313 42.8492 16.8 41.9375 16.8C41.0258 16.8 40.1515 16.4313 39.5068 15.7749C38.8622 15.1185 38.5 14.2283 38.5 13.3C38.5 12.3717 38.8622 11.4815 39.5068 10.8251C40.1515 10.1687 41.0258 9.8 41.9375 9.8ZM27.5 14C31.1467 14 34.6441 15.475 37.2227 18.1005C39.8013 20.726 41.25 24.287 41.25 28C41.25 31.713 39.8013 35.274 37.2227 37.8995C34.6441 40.525 31.1467 42 27.5 42C23.8533 42 20.3559 40.525 17.7773 37.8995C15.1987 35.274 13.75 31.713 13.75 28C13.75 24.287 15.1987 20.726 17.7773 18.1005C20.3559 15.475 23.8533 14 27.5 14ZM27.5 19.6C25.312 19.6 23.2135 20.485 21.6664 22.0603C20.1192 23.6356 19.25 25.7722 19.25 28C19.25 30.2278 20.1192 32.3644 21.6664 33.9397C23.2135 35.515 25.312 36.4 27.5 36.4C29.688 36.4 31.7865 35.515 33.3336 33.9397C34.8808 32.3644 35.75 30.2278 35.75 28C35.75 25.7722 34.8808 23.6356 33.3336 22.0603C31.7865 20.485 29.688 19.6 27.5 19.6Z" fill="white"/>
</svg>
