<svg width="144" height="96" viewBox="0 0 144 96" fill="none" xmlns="http://www.w3.org/2000/svg">
<path d="M0 95.5638L12.8241 0L89.1705 58.9235L0 95.5638Z" fill="#FF2AAC"/>
<path d="M28.0786 27.1436C38.5473 21.9093 50.5114 19.666 62.1017 20.4138C73.3181 21.1615 83.4129 26.7697 93.5077 31.2563C109.211 35.7429 126.035 34.6212 140.617 27.1436" stroke="#19223F" stroke-width="5.6082" stroke-miterlimit="10" stroke-linecap="round"/>
<path d="M28.0786 42.8466C38.1734 38.36 49.0159 35.369 60.2323 36.1168C71.0748 36.8645 80.7957 40.9772 90.1427 45.8376C106.593 51.8197 125.287 50.6981 140.617 42.8466" stroke="#19223F" stroke-width="5.6082" stroke-miterlimit="10" stroke-linecap="round"/>
<path d="M28.0786 58.9234C39.6689 52.9414 52.7547 50.6981 65.8405 52.5675C75.5614 54.063 83.4129 58.5496 92.0121 62.2884C107.715 68.2705 125.661 66.0272 140.617 58.9234" stroke="#19223F" stroke-width="5.6082" stroke-miterlimit="10" stroke-linecap="round"/>
</svg>
