<svg width="113" height="93" viewBox="0 0 113 93" fill="none" xmlns="http://www.w3.org/2000/svg">
<path d="M111.81 12.1309C105.486 6.06504 97.2659 2.10388 88.6387 0.644506C79.9618 -0.814869 70.9375 0.177898 62.9259 3.89087C55.1723 7.4847 48.63 13.5307 44.1129 20.7581C41.8493 24.3718 40.0921 28.323 38.9405 32.4331C37.779 36.5729 37.1734 40.9808 37.4613 45.2795C37.7591 49.7073 39.0894 54.3038 42.3953 57.4509C45.8998 60.7668 50.6552 62.7622 55.4106 63.3678C60.2255 63.9734 65.2986 63.5068 69.7958 61.6305C71.7913 60.7966 73.7074 59.7442 75.2561 58.2253C76.636 56.8751 77.7778 55.237 78.6216 53.4997C80.21 50.2434 81.1333 46.0043 79.1875 42.6884C78.1848 40.9808 76.4573 39.6902 74.8193 38.628C72.9131 37.3969 70.8184 36.3942 68.6541 35.739C66.5197 35.0937 64.2165 34.915 62.0026 34.776C59.5405 34.6271 57.0784 34.6469 54.6164 34.8256C49.7021 35.193 44.8276 36.1758 40.1616 37.7742C35.6048 39.3328 31.0976 41.4276 27.1662 44.2272C23.3738 46.9176 20.1969 50.3526 17.6257 54.2145C11.8974 62.802 9.5048 73.0374 8.35318 83.1637C8.05535 85.7846 7.83694 88.4055 7.65824 91.0364C7.61853 91.5725 8.1447 92.0292 8.65102 92.0292C9.2169 92.0292 9.60408 91.5725 9.64379 91.0364C10.3387 80.9399 11.5797 70.5654 15.9181 61.3029C17.7746 57.3417 20.1473 53.6089 23.1257 50.4022C26.1834 47.1162 29.8169 44.6243 33.8078 42.599C42.1471 38.3599 51.6381 36.3148 60.98 36.7119C63.1244 36.8013 65.3582 36.9303 67.443 37.4664C69.4285 37.9827 71.3247 38.8464 73.0819 39.8888C74.6108 40.8021 76.368 41.9835 77.3211 43.4528C78.1649 44.7434 78.3734 46.2425 78.2642 47.8012C78.0061 51.2163 76.1297 54.7109 73.6279 57.0439C72.1983 58.3841 70.332 59.3372 68.4854 60.0321C66.3212 60.8462 64.0378 61.3426 61.7445 61.5312C57.2075 61.9085 52.5713 61.2929 48.4711 59.2379C46.4955 58.2551 44.5894 56.9843 43.1101 55.3363C41.7798 53.8471 40.8764 52.0204 40.3006 50.1143C39.1093 46.1532 39.1887 41.8445 39.8141 37.7841C40.4296 33.7932 41.6408 29.8816 43.3881 26.2282C46.8529 18.9611 52.3032 12.6273 59.0938 8.27891C66.0829 3.80151 74.303 1.70676 82.5828 2.01452C90.8327 2.32228 98.9833 4.99284 105.754 9.71843C107.402 10.87 108.951 12.1507 110.4 13.5406C111.333 14.4142 112.733 13.0144 111.81 12.1309Z" fill="#231F20"/>
<path d="M0.698803 86.6086C0.827864 86.6483 0.947026 86.698 1.07609 86.7476C0.996664 86.7178 0.917252 86.6781 0.83783 86.6483C1.66183 87.0057 2.39648 87.5418 3.12121 88.0581C3.88564 88.5942 4.64014 89.1402 5.39464 89.6961C5.82154 90.0138 6.24842 90.3415 6.67531 90.6691C6.60582 90.6194 6.54625 90.5698 6.47676 90.5102C6.97314 90.8875 7.44966 91.2945 7.95598 91.6618C8.5715 92.1185 9.42531 92.188 10.0706 91.7412C10.5273 91.4236 10.8946 90.9867 11.3016 90.5996C11.669 90.2422 12.0462 89.8947 12.4334 89.5671C12.8702 89.1898 13.3169 88.8225 13.7637 88.475C13.6942 88.5247 13.6346 88.5743 13.5651 88.6339C14.7962 87.6808 16.0967 86.837 17.4668 86.0924C17.8539 85.8839 18.2511 85.6754 18.6581 85.4769C18.8765 85.3776 19.0552 85.1095 19.1147 84.8812C19.1842 84.6429 19.1544 84.3252 19.0154 84.1168C18.8765 83.9083 18.6779 83.7197 18.4198 83.6601C18.1517 83.6005 17.9036 83.6402 17.6554 83.7594C15.094 85.0103 12.7213 86.6285 10.6166 88.5346C10.3287 88.7927 10.0508 89.0608 9.77278 89.3288C9.50473 89.5969 9.24658 89.8947 8.94875 90.133C9.01824 90.0833 9.07781 90.0337 9.1473 89.9741C9.06788 90.0337 8.98845 90.0833 8.88917 90.133C8.96859 90.1032 9.04805 90.0635 9.12748 90.0337C9.05798 90.0635 8.98848 90.0833 8.91898 90.0933C9.00833 90.0833 9.09765 90.0734 9.187 90.0535C9.12744 90.0635 9.05795 90.0635 8.99839 90.0535C9.08774 90.0635 9.1771 90.0734 9.26645 90.0933C9.19696 90.0833 9.1374 90.0635 9.07784 90.0436C9.15726 90.0734 9.23667 90.1131 9.31609 90.1429C9.1771 90.0833 9.05794 90.0039 8.93881 89.9146C9.0083 89.9642 9.06787 90.0138 9.13737 90.0734C7.1816 88.5545 5.23581 87.0256 3.17084 85.6655C2.57518 85.2684 1.94972 84.9308 1.2647 84.7025C1.02644 84.6231 0.708731 84.6826 0.500249 84.8018C0.291767 84.9209 0.0932514 85.1592 0.0436128 85.3974C-0.115231 85.9335 0.172634 86.4299 0.698803 86.6086Z" fill="#231F20"/>
</svg>
