<svg width="69" height="56" viewBox="0 0 69 56" fill="none" xmlns="http://www.w3.org/2000/svg">
<path d="M69 6.58824C66.4603 7.74118 63.7228 8.49882 60.8862 8.86118C63.7887 7.11529 66.0316 4.34824 67.087 1.02118C64.3494 2.66824 61.315 3.82118 58.1157 4.48C55.51 1.64706 51.849 0 47.6931 0C39.9422 0 33.6095 6.32471 33.6095 14.1318C33.6095 15.2518 33.7414 16.3388 33.9723 17.36C22.2304 16.7671 11.7749 11.1341 4.81549 2.60235C3.59512 4.67765 2.90249 7.11529 2.90249 9.68471C2.90249 14.5929 5.3762 18.9412 9.2022 21.4118C6.86042 21.4118 4.68356 20.7529 2.77056 19.7647V19.8635C2.77056 26.7153 7.65201 32.4471 14.1166 33.7318C12.0411 34.299 9.86217 34.378 7.75096 33.9624C8.64679 36.7705 10.4012 39.2277 12.7677 40.9885C15.1341 42.7493 17.9936 43.7251 20.9441 43.7788C15.9427 47.7332 9.74311 49.8707 3.36424 49.84C2.24283 49.84 1.12142 49.7741 0 49.6424C6.26673 53.6612 13.7208 56 21.7027 56C47.6931 56 61.9747 34.4565 61.9747 15.7788C61.9747 15.1529 61.9747 14.56 61.9417 13.9341C64.7122 11.9576 67.087 9.45412 69 6.58824Z" fill="white"/>
</svg>
